<svg xmlns="http://www.w3.org/2000/svg" viewBox="0 0 473.91 202.04"><defs><style>.cls-1{fill:#e056fd;}.cls-2{fill:#4834d4;}.cls-3{fill:#6ab04c;}.cls-4{fill:#f9ca24;}.cls-5{fill:#eb4d4b;}.cls-6{fill:#fff;}</style></defs><title>logo-white</title><g id="Logo"><path class="cls-1" d="M197.88,29.53a41.5,41.5,0,0,1,13-2h.35V8.28h-25V27.51A35.15,35.15,0,0,1,197.88,29.53Z" transform="translate(-5.34 -3.58)"/><path class="cls-1" d="M356.43,29.76V27.51h0v2.25Z" transform="translate(-5.34 -3.58)"/><polygon class="cls-1" points="421.37 26.18 426.06 26.18 426.06 0 401.09 0 401.09 26.18 418.33 26.18 421.37 26.18"/><polygon class="cls-1" points="448.49 98.42 473.49 98.42 448.78 60.74 471.37 26.18 446.37 26.18 423.78 60.74 448.49 98.42"/><path class="cls-2" d="M172.88,29.53a41.5,41.5,0,0,1,13-2h.35V8.28h-25V27.51A35.15,35.15,0,0,1,172.88,29.53Z" transform="translate(-5.34 -3.58)"/><polygon class="cls-2" points="301.09 68.07 301.06 68.02 301.06 68.1 301.09 68.1 301.09 68.07"/><path class="cls-2" d="M331.43,29.76V27.51h0v2.25Z" transform="translate(-5.34 -3.58)"/><polygon class="cls-2" points="396.37 26.18 401.06 26.18 401.06 0 376.09 0 376.09 26.18 393.33 26.18 396.37 26.18"/><polygon class="cls-2" points="398.78 60.74 423.49 98.42 448.49 98.42 423.78 60.74 446.37 26.18 443.33 26.18 426.06 26.18 421.37 26.18 398.78 60.74"/><path class="cls-3" d="M147.88,29.53a41.5,41.5,0,0,1,13-2h.35V8.28h-25V27.51A35.15,35.15,0,0,1,147.88,29.53Z" transform="translate(-5.34 -3.58)"/><path class="cls-4" d="M207,97.66a32.72,32.72,0,0,1-2.78,1.92V102h5.62l-1.43-3.42C207.93,98.29,207.46,98,207,97.66Z" transform="translate(-5.34 -3.58)"/><path class="cls-3" d="M197.88,29.53l.42.16h5.92v2.87c.93.57,1.84,1.18,2.71,1.84.69-.47,1.41-.92,2.14-1.34l1.54-3.38h6c1.15-.37,2.35-.7,3.56-1a35.86,35.86,0,0,0-8.95-1.19h-.35A41.5,41.5,0,0,0,197.88,29.53Z" transform="translate(-5.34 -3.58)"/><path class="cls-5" d="M179.22,72.63a18.15,18.15,0,0,0,0-13.24Z" transform="translate(-5.34 -3.58)"/><path class="cls-3" d="M281.43,71.68V59.63H270a14.85,14.85,0,0,0-1.08-2.36c.15.78.3,1.56.41,2.36h-2.42a19.35,19.35,0,0,0-.21,12.05h2.9c-.1.7-.22,1.38-.35,2.06a17,17,0,0,0,.81-2.06Z" transform="translate(-5.34 -3.58)"/><path class="cls-3" d="M306.4,36.08l0,0V27.51h0Z" transform="translate(-5.34 -3.58)"/><path class="cls-3" d="M306.43,95.84l0,0V102h0Z" transform="translate(-5.34 -3.58)"/><polygon class="cls-3" points="368.33 26.18 371.37 26.18 376.06 26.18 376.06 0 351.09 0 351.09 23.93 351.09 26.18 368.33 26.18"/><polygon class="cls-3" points="373.78 60.74 398.49 98.42 423.49 98.42 398.78 60.74 421.37 26.18 418.33 26.18 401.09 26.18 401.06 26.18 396.37 26.18 373.78 60.74"/><rect class="cls-5" x="51.58" y="4.7" width="3.2" height="33.91"/><rect class="cls-5" x="51.58" y="62.6" width="3.2" height="35.82"/><path class="cls-4" d="M135.9,27.5h.35V8.28h-25V35.87A38.28,38.28,0,0,1,135.9,27.5Z" transform="translate(-5.34 -3.58)"/><path class="cls-4" d="M111.25,102h10a35.84,35.84,0,0,1-10-5.81Z" transform="translate(-5.34 -3.58)"/><path class="cls-4" d="M179.22,99.58V102h5.62l-2.06-4.94A35.69,35.69,0,0,1,179.22,99.58Z" transform="translate(-5.34 -3.58)"/><path class="cls-4" d="M179.22,29.69v2.87a33.25,33.25,0,0,1,3.83,2.73l2.56-5.61H198.3l-.42-.16a35.15,35.15,0,0,0-11.63-2h-.35a41.5,41.5,0,0,0-13,2l.42.16Z" transform="translate(-5.34 -3.58)"/><path class="cls-4" d="M151.74,76.82a17.51,17.51,0,0,0,0-21.62,17.55,17.55,0,0,0,0,21.62Z" transform="translate(-5.34 -3.58)"/><path class="cls-3" d="M216.64,29.68h-6l-1.54,3.38A39.54,39.54,0,0,1,216.64,29.68Z" transform="translate(-5.34 -3.58)"/><path class="cls-4" d="M208.41,98.58l1.43,3.42h5.64A38.81,38.81,0,0,1,208.41,98.58Z" transform="translate(-5.34 -3.58)"/><path class="cls-4" d="M207,97.66c-1-.65-1.89-1.35-2.78-2.08v4A32.72,32.72,0,0,0,207,97.66Z" transform="translate(-5.34 -3.58)"/><path class="cls-4" d="M206.93,34.4c-.87-.66-1.78-1.27-2.71-1.84v3.85C205.09,35.7,206,35,206.93,34.4Z" transform="translate(-5.34 -3.58)"/><path class="cls-4" d="M281.43,95.84A36.87,36.87,0,0,1,270.77,102h10.66Z" transform="translate(-5.34 -3.58)"/><path class="cls-4" d="M281.43,36.1V27.51h-.53a46.84,46.84,0,0,0-10.7,1.2q-1,.23-2,.51A37.2,37.2,0,0,1,281.43,36.1Z" transform="translate(-5.34 -3.58)"/><path class="cls-4" d="M266.87,59.63H245a14.34,14.34,0,0,0-1.55-3.14A17.52,17.52,0,0,0,240.8,66a17.76,17.76,0,0,0,2.52,9.38,16.37,16.37,0,0,0,1.7-3.69h21.64a19.35,19.35,0,0,1,.21-12.05Z" transform="translate(-5.34 -3.58)"/><path class="cls-4" d="M306.43,36.1l0,0V58.17l0-.05Z" transform="translate(-5.34 -3.58)"/><path class="cls-4" d="M306.43,71.68h0V95.86l0,0Z" transform="translate(-5.34 -3.58)"/><polygon class="cls-4" points="343.33 26.18 346.37 26.18 351.06 26.18 351.06 23.93 351.06 0 326.09 0 326.09 23.93 326.09 26.18 343.33 26.18"/><polygon class="cls-4" points="348.78 60.74 373.49 98.42 398.49 98.42 373.78 60.74 396.37 26.18 393.33 26.18 376.09 26.18 376.06 26.18 371.37 26.18 348.78 60.74"/><polygon class="cls-5" points="51.58 38.61 51.58 4.7 50.46 4.7 26.58 4.7 26.58 38.61 51.58 38.61"/><rect class="cls-5" x="26.58" y="62.6" width="25" height="35.82"/><path class="cls-5" d="M86.25,102h25V96.19c-8.35-6.91-13.37-17.57-13.37-30.26s5-23.22,13.37-30.06V8.28h-25Z" transform="translate(-5.34 -3.58)"/><path class="cls-5" d="M149.46,102h10.38l-2.06-4.94A33.69,33.69,0,0,1,149.46,102Z" transform="translate(-5.34 -3.58)"/><path class="cls-5" d="M158.05,35.29l2.56-5.61H173.3l-.42-.16a35.15,35.15,0,0,0-11.63-2h-.35a41.5,41.5,0,0,0-13,2A33.49,33.49,0,0,1,158.05,35.29Z" transform="translate(-5.34 -3.58)"/><path class="cls-5" d="M139.24,82.53a15.9,15.9,0,0,0,12.5-5.71,17.55,17.55,0,0,1,0-21.62,15.93,15.93,0,0,0-12.49-5.69C129.83,49.51,123,56.58,123,66S129.88,82.53,139.24,82.53Z" transform="translate(-5.34 -3.58)"/><path class="cls-5" d="M204.22,95.58c-8.38-6.93-13.43-17.37-13.43-29.67s5-22.65,13.43-29.5V29.69H185.61l-2.56,5.61a33.25,33.25,0,0,0-3.83-2.73V59.39a18.15,18.15,0,0,1,0,13.24v27a35.69,35.69,0,0,0,3.56-2.52l2.06,4.94h19.38V95.58Z" transform="translate(-5.34 -3.58)"/><path class="cls-5" d="M268.88,57.27A14.85,14.85,0,0,1,270,59.63h11.47V36.1a37.2,37.2,0,0,0-13.21-6.89,43.27,43.27,0,0,0-9.78-1.64c-.84,0-1.68-.07-2.54-.07a46.84,46.84,0,0,0-10.7,1.2q-1,.23-2,.51A35.88,35.88,0,0,1,268.88,57.27Z" transform="translate(-5.34 -3.58)"/><path class="cls-5" d="M281.43,95.84V71.68H270a17,17,0,0,1-.81,2.06c-2.6,13.49-11.31,23.69-23.44,28.26h25A36.87,36.87,0,0,0,281.43,95.84Z" transform="translate(-5.34 -3.58)"/><path class="cls-5" d="M243.41,56.49a14.83,14.83,0,0,0-12.58-6.61c-8.78,0-15,6.66-15,16.11s6.33,16.27,15,16.27a14.4,14.4,0,0,0,12.49-6.89A17.76,17.76,0,0,1,240.8,66,17.52,17.52,0,0,1,243.41,56.49Z" transform="translate(-5.34 -3.58)"/><polygon class="cls-5" points="301.09 32.52 301.09 54.54 318.33 26.18 326.06 26.18 326.06 23.93 326.06 0 301.09 0 301.09 23.93 301.09 32.52"/><polygon class="cls-5" points="301.09 68.07 301.09 68.1 301.09 92.26 301.09 98.42 319.06 98.42 301.09 68.07"/><polygon class="cls-5" points="348.78 60.74 371.37 26.18 368.33 26.18 351.09 26.18 351.06 26.18 346.37 26.18 323.78 60.74 348.49 98.42 373.49 98.42 348.78 60.74"/><polygon class="cls-6" points="26.58 98.42 26.58 62.6 51.58 62.6 54.79 62.6 54.79 98.42 80.91 98.42 80.91 4.7 79.79 4.7 76.58 4.7 75.46 4.7 54.79 4.7 54.79 38.61 51.58 38.61 26.58 38.61 26.58 4.7 25.46 4.7 0.46 4.7 0.46 98.42 26.58 98.42"/><path class="cls-6" d="M179.22,72.63V29.69H160.61l-2.56,5.61a33.49,33.49,0,0,0-10.17-5.76,35.15,35.15,0,0,0-11.63-2h-.35a38.28,38.28,0,0,0-24.65,8.37C102.9,42.71,97.88,53.3,97.88,65.93s5,23.35,13.37,30.26a35.84,35.84,0,0,0,10,5.81h28.22a33.69,33.69,0,0,0,8.32-4.94l2.06,4.94h19.38V72.63ZM123,66c0-9.41,6.82-16.48,16.23-16.48a15.93,15.93,0,0,1,12.49,5.69,17.51,17.51,0,0,1,0,21.62,15.9,15.9,0,0,1-12.5,5.71C129.88,82.53,123,75.46,123,66Z" transform="translate(-5.34 -3.58)"/><path class="cls-6" d="M209.07,33.06c-.73.42-1.45.87-2.14,1.34-.94.63-1.84,1.3-2.71,2-8.4,6.85-13.43,17.2-13.43,29.5s5.05,22.74,13.43,29.67c.89.73,1.81,1.43,2.78,2.08.46.32.93.63,1.41.92a38.81,38.81,0,0,0,7.07,3.42h30.29c12.13-4.57,20.84-14.77,23.44-28.26.13-.68.25-1.36.35-2.06H245a16.37,16.37,0,0,1-1.7,3.69,14.4,14.4,0,0,1-12.49,6.89c-8.7,0-15-6.82-15-16.27s6.25-16.11,15-16.11a14.83,14.83,0,0,1,12.58,6.61A14.34,14.34,0,0,1,245,59.63h24.33c-.11-.8-.26-1.58-.41-2.36a35.88,35.88,0,0,0-25.66-28.06,43.27,43.27,0,0,0-9.78-1.64c-.84,0-1.68-.07-2.54-.07a46.84,46.84,0,0,0-10.7,1.2c-1.21.28-2.41.61-3.56,1A39.54,39.54,0,0,0,209.07,33.06Z" transform="translate(-5.34 -3.58)"/><polygon class="cls-6" points="276.09 32.52 276.09 56.05 276.09 68.1 276.09 92.26 276.09 98.42 301.06 98.42 301.06 92.28 301.06 68.1 301.06 68.02 301.09 68.07 319.06 98.42 348.49 98.42 323.78 60.74 346.37 26.18 343.33 26.18 326.09 26.18 326.06 26.18 318.33 26.18 301.09 54.54 301.06 54.58 301.06 32.5 301.06 23.93 301.06 0 276.09 0 276.09 23.93 276.09 32.52"/></g><g id="Layer_2" data-name="Layer 2"><path class="cls-6" d="M88.25,123.11l-30.8,80.48H36.8L5.34,123.11H30.63l16.43,50,16-50Z" transform="translate(-5.34 -3.58)"/><path class="cls-6" d="M95.3,141.51h21.38v62.07H95.3Zm.16-25.92h21.05v18.15H95.46Z" transform="translate(-5.34 -3.58)"/><path class="cls-6" d="M160.84,205.62c-19.91,0-34.28-14-34.28-33.16s14.31-32.89,34.35-32.89c17.44,0,30.53,11,32.87,27.51H173a12.61,12.61,0,0,0-12.11-8.35c-7.51,0-12.86,5.71-12.86,13.8s5.41,13.93,12.86,13.93A12.49,12.49,0,0,0,173,177.4h21c-2.41,16.86-15.68,28.22-33.16,28.22Z" transform="translate(-5.34 -3.58)"/><path class="cls-6" d="M244.54,184.86v18.73H229.83c-13.73,0-22.08-8.4-22.08-22.19V158H196.39v-5l27.81-29.62h4.4v18.15h15.59V158H229.14v19.76c0,4.45,2.68,7.13,7.19,7.13Z" transform="translate(-5.34 -3.58)"/><path class="cls-6" d="M250.33,172.55c0-19.25,14.57-33.08,34.81-33.08s34.8,13.83,34.8,33.08-14.63,33.07-34.8,33.07S250.33,191.72,250.33,172.55Zm34.81,13.86c7.79,0,13.38-5.65,13.38-13.86s-5.59-13.87-13.38-13.87-13.39,5.66-13.39,13.87,5.59,13.86,13.39,13.86Z" transform="translate(-5.34 -3.58)"/><path class="cls-6" d="M370.25,141.21v19.57H362c-7.57,0-10.75,3.32-10.75,11.24v31.57H329.82V141.51h14.33l3.33,6.89c4.38-5.07,9.71-7.19,17.1-7.19Z" transform="translate(-5.34 -3.58)"/><path class="cls-6" d="M378.34,141.51h21.38v62.07H378.34Zm.16-25.92h21.06v18.15H378.5Z" transform="translate(-5.34 -3.58)"/><path class="cls-6" d="M479.25,141.44v62.08H462.72l-1.83-4.39a29.4,29.4,0,0,1-18.73,6.49c-19,0-32.55-13.85-32.55-33.14s13.56-32.91,32.55-32.91a29.46,29.46,0,0,1,19,6.67l2.18-4.8Zm-20.34,31.09c0-8.06-5.89-14.11-13.89-14.11s-13.9,6.05-13.9,14.11S437,186.69,445,186.69,458.91,180.64,458.91,172.53Z" transform="translate(-5.34 -3.58)"/></g></svg>